<svg height="512" viewBox="0 0 512 512" width="512" xmlns="http://www.w3.org/2000/svg"><g><g><path d="m408 256h-152v-152a152 152 0 0 1 152 152z" fill="#ab2300"/><path d="m408 256a152 152 0 0 1 -259.48 107.48l107.48-107.48z" fill="#ffda44"/><path d="m16 16h160v72h-160z" fill="#ffda44"/><path d="m16 448h192v48h-192z" fill="#787680"/><path d="m304 16h192v48h-192z" fill="#787680"/><circle cx="448" cy="448" fill="#ffda44" r="48"/><path d="m256 104v152l-107.48 107.48a152 152 0 0 1 107.48-259.48z" fill="#83d8f4"/><path d="m456 136h40v32h-40z" fill="#ffda44"/><path d="m16 344h40v32h-40z" fill="#ffda44" transform="matrix(-1 0 0 -1 72 720)"/><circle cx="448" cy="448" fill="#cca400" r="16"/><g fill="#ff9811"><path d="m472 192h24v152h-24z"/><path d="m16 200h24v120h-24z"/></g></g><g><path d="m384 92v-20h112a8 8 0 0 0 8-8v-48a8 8 0 0 0 -8-8h-192a8 8 0 0 0 -8 8v48a8 8 0 0 0 8 8h64v16.69l-29.94 29.94a159.989 159.989 0 0 0 -80.94-22.54 7.014 7.014 0 0 0 -2.24 0 159.792 159.792 0 0 0 -143.67 91.81l-47.21-47.21v-44.69h112a8 8 0 0 0 8-8v-72a8 8 0 0 0 -8-8h-160a8 8 0 0 0 -8 8v72a8 8 0 0 0 8 8h32v48a8.008 8.008 0 0 0 2.34 5.66l54.36 54.36a159.85 159.85 0 0 0 126.06 209.91l-26.07 26.07h-188.69a8 8 0 0 0 -8 8v48a8 8 0 0 0 8 8h192a8 8 0 0 0 8-8v-44.69l35.46-35.46c1.51.05 3.03.07 4.54.07a159.489 159.489 0 0 0 111.46-45.15l39.34 39.35a55.918 55.918 0 1 0 12.47-10.17l-40.89-40.89a159.482 159.482 0 0 0 37.53-101.93 7.139 7.139 0 0 0 0-2.26 159.5 159.5 0 0 0 -46.77-112.01 161.853 161.853 0 0 0 -17.53-15.16l30.05-30.04a8.008 8.008 0 0 0 2.34-5.66zm-360-12v-56h144v56zm176 408h-176v-32h176zm248-80a40 40 0 1 1 -40 40 40.04 40.04 0 0 1 40-40zm-330.52-191.21 28.86 28.87a8 8 0 0 0 11.32-11.32l-34.33-34.32a143.814 143.814 0 0 1 124.67-87.72v140.39l-99.32 99.32a144.154 144.154 0 0 1 -31.2-135.22zm249.54 130.92-9.36-9.37a8.008 8.008 0 0 0 -5.66-2.34h-64a8 8 0 0 0 0 16h60.69l7.46 7.46a144.176 144.176 0 0 1 -196.16 3.86l99.32-99.32h140.39a143.5 143.5 0 0 1 -32.68 83.71zm-9.2-193.53a143.4 143.4 0 0 1 41.88 93.82h-135.7v-135.7a143.927 143.927 0 0 1 62.35 18.04l-16.01 16a8 8 0 0 0 11.32 11.32l18.5-18.51a143.219 143.219 0 0 1 17.66 15.03zm-45.82-98.18v-32h176v32z"/><path d="m496 80h-73a8 8 0 0 0 0 16h73a8 8 0 0 0 0-16z"/><path d="m496 104h-48a8 8 0 0 0 0 16h48a8 8 0 0 0 0-16z"/><path d="m496 128h-40a8 8 0 0 0 -8 8v32a8 8 0 0 0 8 8h40a8 8 0 0 0 8-8v-32a8 8 0 0 0 -8-8zm-8 32h-24v-16h24z"/><path d="m16 432h88a8 8 0 0 0 0-16h-88a8 8 0 0 0 0 16z"/><path d="m16 408h48a8 8 0 0 0 0-16h-48a8 8 0 0 0 0 16z"/><path d="m16 384h40a8 8 0 0 0 8-8v-32a8 8 0 0 0 -8-8h-40a8 8 0 0 0 -8 8v32a8 8 0 0 0 8 8zm8-32h24v16h-24z"/><path d="m40 48h48a8 8 0 0 0 0-16h-48a8 8 0 0 0 0 16z"/><path d="m112 48h8a8 8 0 0 0 0-16h-8a8 8 0 0 0 0 16z"/><path d="m80 64a8 8 0 0 0 -8-8h-32a8 8 0 0 0 0 16h32a8 8 0 0 0 8-8z"/><path d="m432 48h40a8 8 0 0 0 0-16h-40a8 8 0 0 0 0 16z"/><path d="m400 48h8a8 8 0 0 0 0-16h-8a8 8 0 0 0 0 16z"/><path d="m40 480h48a8 8 0 0 0 0-16h-48a8 8 0 0 0 0 16z"/><path d="m112 480h8a8 8 0 0 0 0-16h-8a8 8 0 0 0 0 16z"/><path d="m328 312h-40a8 8 0 0 0 0 16h40a8 8 0 0 0 0-16z"/><path d="m288 304h16a8 8 0 0 0 0-16h-16a8 8 0 0 0 0 16z"/><path d="m448 472a24 24 0 1 0 -24-24 24.027 24.027 0 0 0 24 24zm0-32a8 8 0 1 1 -8 8 8.009 8.009 0 0 1 8-8z"/><path d="m496 184h-24a8 8 0 0 0 -8 8v152a8 8 0 0 0 8 8h24a8 8 0 0 0 8-8v-152a8 8 0 0 0 -8-8zm-8 152h-8v-136h8z"/><path d="m16 328h24a8 8 0 0 0 8-8v-120a8 8 0 0 0 -8-8h-24a8 8 0 0 0 -8 8v120a8 8 0 0 0 8 8zm8-120h8v104h-8z"/></g></g></svg>