<?xml version="1.0" ?><!DOCTYPE svg  PUBLIC '-//W3C//DTD SVG 1.1//EN'  'http://www.w3.org/Graphics/SVG/1.1/DTD/svg11.dtd'><svg height="512px" style="enable-background:new 0 0 512 512;" version="1.1" viewBox="0 0 512 512" width="512px" xml:space="preserve" xmlns="http://www.w3.org/2000/svg" xmlns:xlink="http://www.w3.org/1999/xlink"><g id="_x32_48_x2C__Success_x2C__personal_x2C__development_x2C__Leader_x2C__career"><g><path d="M111.129,374.074l2.714-2.748l0.351-0.383    c3.311-3.491,7.803-8.345,8.57-9.176c5.61-6.515,9.282-12.199,13.806-19.246l0.948-1.469    c12.188-18.927,22.705-27.018,34.275-35.938c6.313-4.875,12.966-9.984,20.375-17.33l-0.66-0.34    c-3.789-2.022-9.239-4.961-11.731-6.408c-0.489-0.129-0.947-0.384-1.298-0.788l-0.042-0.042    c-0.405-0.49-6.356-17.904-10.772-30.871l-2.992-8.75c-2.885,3.684-5.333,6.621-7.93,9.453c-3.429,3.746-7.081,7.26-12.382,12.05    c-16.351,14.839-17.639,17.011-28.23,35.149l-0.754,1.277c-4.982,8.516-20.63,16.563-31.84,22.354l-9.058,4.749    c-2.374,1.234-4.812,2.512-7.058,3.896c-6.259,3.811-27.304,27.932-39.196,41.558l-2.223,2.555    c3.969-0.19,7.993-0.468,12.006-0.724l3.418-0.234l10.112-13.562c0.288-0.447,0.723-0.81,1.256-1l32.956-12.604    c2.832-2.299,21.024-17.138,29.688-23.737c8.762-6.643,16.309-27.89,16.319-27.954c0.458-1.363,1.938-2.086,3.299-1.639    c1.364,0.446,2.097,1.916,1.651,3.278c-0.021,0.063-8.165,22.886-18.128,30.466c-9.314,7.09-29.795,23.845-29.859,23.887    c-0.225,0.191-0.479,0.34-0.746,0.447l-32.616,12.455l-7.123,9.559c2.79-0.149,5.61-0.276,8.474-0.34    c4.524-0.129,29.167,0.894,44.155,1.489C106.456,373.647,109.99,374.074,111.129,374.074 M286.729,93.091    c4.235,0,8.068,1.703,10.846,4.492c2.779,2.767,4.492,6.6,4.492,10.837c0,4.235-1.713,8.068-4.492,10.857    c-2.777,2.767-6.61,4.492-10.846,4.492c-4.228,0-8.068-1.726-10.849-4.492c-2.777-2.789-4.492-6.622-4.492-10.857    c0-4.217,1.715-8.049,4.492-10.837C278.67,94.794,282.501,93.091,286.729,93.091z M202.76,173.651    c-3.438-3.428-8.186-5.558-13.443-5.558c-5.175,0-9.869,2.065-13.296,5.408l-0.139,0.149c-3.439,3.448-5.568,8.196-5.568,13.454    c0,5.238,2.129,9.986,5.568,13.435c3.438,3.429,8.186,5.557,13.435,5.557c5.247,0,10.005-2.128,13.443-5.557    c3.439-3.448,5.568-8.196,5.568-13.435C208.328,181.848,206.199,177.1,202.76,173.651z M293.657,198.07    c1.107-0.895,2.757-0.724,3.662,0.383c0.906,1.107,0.734,2.768-0.371,3.662c-0.065,0.043-21.982,17.671-22.644,25.889    c-0.733,9.304-21.619,21.716-27.304,24.931l0.351,26.526c0.011,1.427-1.139,2.619-2.576,2.619    c-1.438,0.021-2.618-1.129-2.639-2.555l-0.362-27.848c-0.107-1.043,0.415-2.086,1.394-2.597    c0.075-0.043,25.292-13.497,25.931-21.481C269.94,217.104,293.595,198.135,293.657,198.07z M394.158,236.669L398.352,221    l-42.23-11.305l-4.203,15.647L394.158,236.669z M388.601,257.362l4.204-15.647l-42.238-11.326l-4.194,15.669L388.601,257.362z     M383.054,278.077l4.194-15.669l-42.229-11.305l-4.193,15.648L383.054,278.077z M377.509,298.771l4.204-15.648l-42.238-11.326    l-4.195,15.67L377.509,298.771z M371.962,319.486l4.194-15.67l-42.239-11.305l-4.194,15.648L371.962,319.486z M366.417,340.18    l4.194-15.648l-42.241-11.326l-4.194,15.67L366.417,340.18z M360.87,360.895l4.194-15.648l-42.239-11.326l-4.194,15.648    L360.87,360.895z M355.323,381.588l4.196-15.647l-42.241-11.306l-4.194,15.648L355.323,381.588z M319.354,117.659    c0.361-1.405,1.788-2.235,3.173-1.874c1.405,0.362,2.235,1.789,1.873,3.172c-0.021,0.086-5.311,21.992-25.41,25.995    c0.021,0.341,0.031,0.681,0.031,1.044v39.471l-24.589,0.299v-39.77l0.021-0.725c-21.652-2.959-27.272-26.229-27.293-26.314    c-0.362-1.383,0.479-2.81,1.874-3.172c1.395-0.361,2.82,0.469,3.183,1.874c0.01,0.063,4.864,20.14,23.514,22.439    c1.288-2.555,3.418-4.321,5.866-5.302c1.447-0.596,3.023-0.915,4.62-0.958c1.393,0.213,2.746,0.341,4.055,0.427    c0.542,0.148,1.076,0.318,1.587,0.531c2.363,0.938,4.416,2.619,5.715,5.046C314.789,136.521,319.334,117.723,319.354,117.659z     M186.697,147.124c0-1.448,1.183-2.619,2.62-2.619c1.448,0,2.618,1.171,2.618,2.619v9.197c0,1.448-1.17,2.618-2.618,2.618    c-1.437,0-2.62-1.17-2.62-2.618V147.124z M222.634,164.858c1.246-0.724,2.843-0.298,3.567,0.937    c0.712,1.256,0.286,2.853-0.947,3.576l-7.974,4.6c-1.246,0.724-2.843,0.297-3.566-0.958c-0.725-1.235-0.298-2.832,0.948-3.556    L222.634,164.858z M225.254,204.819c1.233,0.724,1.66,2.32,0.947,3.577c-0.725,1.234-2.321,1.66-3.567,0.958l-7.972-4.62    c-1.246-0.725-1.672-2.32-0.948-3.556c0.723-1.257,2.32-1.682,3.566-0.958L225.254,204.819z M191.935,227.066    c0,1.448-1.17,2.619-2.618,2.619c-1.437,0-2.62-1.171-2.62-2.619v-9.196c0-1.448,1.183-2.619,2.62-2.619    c1.448,0,2.618,1.171,2.618,2.619V227.066z M156.008,209.354c-1.246,0.702-2.843,0.276-3.566-0.958    c-0.725-1.257-0.298-2.854,0.948-3.577l7.972-4.599c1.246-0.724,2.843-0.299,3.567,0.958c0.712,1.235,0.286,2.831-0.947,3.556    L156.008,209.354z M153.39,169.371c-1.246-0.724-1.672-2.32-0.948-3.576c0.723-1.234,2.32-1.66,3.566-0.937l7.974,4.599    c1.233,0.724,1.66,2.32,0.947,3.556c-0.725,1.255-2.321,1.682-3.567,0.958L153.39,169.371z M204.55,155.513    c0.712-1.235,2.309-1.661,3.555-0.958c1.244,0.724,1.67,2.32,0.958,3.555l-2.811,4.875c-0.712,1.235-2.309,1.66-3.555,0.959    c-1.246-0.725-1.67-2.32-0.958-3.557L204.55,155.513z M224.286,184.488c1.448,0,2.618,1.17,2.618,2.617    c0,1.427-1.17,2.598-2.618,2.598h-5.61c-1.448,0-2.62-1.171-2.62-2.598c0-1.447,1.172-2.617,2.62-2.617H224.286z M209.063,216.082    c0.723,1.234,0.298,2.832-0.947,3.555c-1.246,0.725-2.854,0.299-3.566-0.957l-2.811-4.855c-0.723-1.256-0.298-2.852,0.948-3.576    c1.246-0.703,2.853-0.277,3.565,0.959L209.063,216.082z M174.094,218.68c-0.725,1.256-2.321,1.682-3.567,0.957    c-1.244-0.723-1.67-2.32-0.946-3.555l2.81-4.875c0.714-1.236,2.321-1.662,3.565-0.959c1.246,0.725,1.672,2.32,0.948,3.576    L174.094,218.68z M154.359,189.703c-1.448,0-2.62-1.171-2.62-2.598c0-1.447,1.172-2.617,2.62-2.617h5.61    c1.448,0,2.618,1.17,2.618,2.617c0,1.427-1.17,2.598-2.618,2.598H154.359z M169.581,158.109c-0.714-1.234-0.288-2.831,0.958-3.555    c1.244-0.703,2.841-0.277,3.555,0.958l2.81,4.874c0.714,1.236,0.288,2.832-0.958,3.557c-1.246,0.701-2.841,0.276-3.555-0.959    L169.581,158.109z M189.891,393.063c-1.181,0.81-2.799,0.512-3.618-0.681c-0.809-1.172-0.523-2.811,0.66-3.619    c20.948-14.435,93.739-8.538,93.951-8.516c1.438,0.105,2.513,1.362,2.406,2.811c-0.105,1.426-1.362,2.512-2.799,2.405    C280.288,385.441,209.265,379.715,189.891,393.063z M48.249,406.967c-1.448,0-2.618-1.172-2.618-2.619    c0-1.448,1.17-2.619,2.618-2.619h296.228c1.448,0,2.619,1.171,2.619,2.619c0,1.447-1.171,2.619-2.619,2.619H48.249z     M221.72,418.909c-1.448,0-2.62-1.17-2.62-2.618c0-1.447,1.172-2.619,2.62-2.619h204.988c1.438,0,2.609,1.172,2.609,2.619    c0,1.448-1.172,2.618-2.609,2.618H221.72z M447.689,418.909c-1.447,0-2.618-1.17-2.618-2.618c0-1.447,1.171-2.619,2.618-2.619    h25.623c1.448,0,2.618,1.172,2.618,2.619c0,1.448-1.17,2.618-2.618,2.618H447.689z M36.582,418.548    c-1.448,0-2.618-1.171-2.618-2.619c0-1.447,1.17-2.618,2.618-2.618h97.125c1.448,0,2.618,1.171,2.618,2.618    c0,1.448-1.17,2.619-2.618,2.619H36.582z M388.993,378.012c-10.304-0.724-18.979-1.746-26.516-2.938l-2.757,10.262l-0.011,0.063    l-0.021,0.064l-0.011,0.085l-0.022,0.063l-5.588,20.864c-0.373,1.385-1.811,2.215-3.204,1.831    c-1.384-0.361-2.214-1.788-1.853-3.193l4.961-18.458l-42.239-11.326l-4.95,18.458c-0.372,1.406-1.799,2.236-3.193,1.853    c-1.396-0.362-2.226-1.788-1.854-3.192l5.59-20.864l0.021-0.064l0.011-0.063l0.022-0.064l0.011-0.064l3.479-12.986    c-12.071-2.022-26.484-2.959-48.657-1.49c-23.505,1.576-55.736,5.834-103.202,14.328c-8.633,1.469-15.916,2.215-23.165,2.555    c-5.556,0.256-11.113,0.277-17.265,0.234c18.404-18.693,38.299-40.195,57.6-61.08c9.367-10.134,18.586-20.119,28.422-30.572    l0.33-0.447l13.573-22.227c6.61-10.837,7.089-12.412,9.44-20.545l1.8-6.152c3.673-11.454,8.951-16.266,13.891-20.736    c4.418-4.023,8.602-7.834,11.487-15.393l1.767-4.982c2.319-6.664,4.599-13.199,8.898-18.756c1.203-1.555,2.342-2.896,3.418-4.131    l0.011,19.502c0.01,1.427,1.191,2.576,2.628,2.576l29.796-0.361c1.448,0,2.618-1.172,2.618-2.619v-22.162    c2.268,2.15,4.535,4.172,6.76,6.174c10.592,9.474,20.449,18.33,27.635,38.173c1.244,3.448,2.608,6.429,4.035,9.091    c1.212,2.234,2.49,4.258,3.799,6.109l5.227-19.48l0.012-0.064l0.021-0.063l0.011-0.064l0.021-0.063l5.664-21.141    c0.371-1.405,1.809-2.235,3.203-1.853c1.395,0.361,2.225,1.81,1.852,3.193l-5.023,18.756l42.229,11.306l5.023-18.735    c0.363-1.404,1.801-2.214,3.193-1.853c1.396,0.362,2.226,1.81,1.854,3.194l-5.663,21.141l-0.022,0.063l-0.011,0.064l-0.021,0.064    l-0.011,0.064l-0.011,0.021l-5.471,20.438l-0.021,0.064l-0.011,0.063l-0.021,0.064l-0.021,0.064l-5.484,20.438l-0.01,0.063    l-0.021,0.063l-0.01,0.064l-0.021,0.064l-5.482,20.459l-0.01,0.064l-0.021,0.063l-0.01,0.064l-0.023,0.064l0,0l-1.702,6.323    c0.479,1.384,0.989,2.746,1.565,4.108c0.649,1.512,1.352,2.959,2.118,4.279c1.798,3.108,6.749,8.58,12.081,13.774    c5.388,5.237,11.092,10.092,14.296,11.858c6.738,3.705,11.466,6.324,15.937,9.517c4.48,3.193,8.59,6.897,14.009,12.731    c5.545,5.939,10.964,11.263,16.573,16.393c5.652,5.153,11.466,10.07,17.767,15.181c1.213,1,2.406,1.788,3.268,2.384l0.149,0.085    c1.704,1.15,2.79,1.831,2.491,3.599l-0.044,0.213c-0.531,2.342-2.298,2.385-6.418,1.447c-21.161-4.79-26.847-4.79-46.699-4.727    l-2.81,0.021C413.744,379.311,400.32,378.842,388.993,378.012z" style="fill-rule:evenodd;clip-rule:evenodd;"/></g></g><g id="Layer_1"/></svg>