<svg id="Filled" enable-background="new 0 0 512 512" height="512" viewBox="0 0 512 512" width="512" xmlns="http://www.w3.org/2000/svg"><g><path d="m24 48h464v384h-464z" fill="#e2d2c2"/><path d="m323.147 306.147h64v144h-64z" fill="#298057" transform="matrix(.707 -.707 .707 .707 -163.37 361.884)"/><path d="m379.715 410.717h64v48h-64z" fill="#fcb442" transform="matrix(.707 -.707 .707 .707 -186.803 418.452)"/><path d="m394.745 463 45.255-45.255 11.314 11.314c6.248 6.248 6.248 16.379 0 22.627l-22.627 22.627c-6.248 6.248-16.379 6.248-22.627 0z" fill="#b5b8b9"/><path d="m281.608 349.863h22.627l5.657-16.971 16.971-5.656v-22.628l-73.539-28.284z" fill="#fae8d8"/><path d="m272.182 325.348-18.858-49.024 49.023 18.858z" fill="#757c80"/><path d="m488 40h-48v-8c0-4.418-3.582-8-8-8s-8 3.582-8 8v8h-16v-8c0-4.418-3.582-8-8-8s-8 3.582-8 8v8h-16v-8c0-4.418-3.582-8-8-8s-8 3.582-8 8v8h-16v-8c0-4.418-3.582-8-8-8s-8 3.582-8 8v8h-16v-8c0-4.418-3.582-8-8-8s-8 3.582-8 8v8h-16v-8c0-4.418-3.582-8-8-8s-8 3.582-8 8v8h-16v-8c0-4.418-3.582-8-8-8s-8 3.582-8 8v8h-16v-8c0-4.418-3.582-8-8-8s-8 3.582-8 8v8h-16v-8c0-4.418-3.582-8-8-8s-8 3.582-8 8v8h-16v-8c0-4.418-3.582-8-8-8s-8 3.582-8 8v8h-16v-8c0-4.418-3.582-8-8-8s-8 3.582-8 8v8h-16v-8c0-4.418-3.582-8-8-8s-8 3.582-8 8v8h-48c-4.418 0-8 3.582-8 8v384c0 4.418 3.582 8 8 8h335.436l40.969 40.97c9.367 9.371 24.557 9.374 33.928.007.002-.002.004-.004.007-.007l22.63-22.63c4.516-4.492 7.047-10.604 7.03-16.973 0-.458-.016-.913-.042-1.367h24.042c4.418 0 8-3.582 8-8v-384c0-4.418-3.582-8-8-8zm-220.75 251.251 20.737 7.975-12.761 12.762zm62.142 44.573c3.266-1.089 5.469-4.147 5.469-7.59v-3.318l71.2 71.2-11.317 11.314-70.044-70.043zm87.982 71.6 11.313 11.312-33.941 33.941-11.312-11.313zm-98.513-84.96-11.5 3.833c-2.389.797-4.263 2.671-5.059 5.06l-3.833 11.5h-11.369l-5.59-14.532 22.818-22.818 14.532 5.59zm-14.627 36.392c3.444 0 6.501-2.203 7.59-5.47l1.563-4.69 70.043 70.043-11.311 11.311-71.193-71.194zm141.421 88.164-22.634 22.64c-3.118 3.119-8.175 3.12-11.294.001-.002-.002-.004-.004-.006-.006l-5.66-5.655 33.939-33.944 5.654 5.654c3.125 3.124 3.125 8.189.001 11.314 0 0-.001.001-.001.001zm34.345-23.02h-23.426l-124.054-124.055-.015.014c-.786-.794-1.731-1.414-2.772-1.819l-73.539-28.285c-4.124-1.586-8.753.47-10.339 4.594-.711 1.849-.711 3.896 0 5.745l6.08 15.806h-163.935c-4.416-.005-7.995-3.584-8-8v-32c.035-30.914 25.086-55.965 56-56h200c19.007-.024 35.382-13.4 39.2-32.02.267.005.532.02.8.02 4.418 0 8-3.582 8-8s-3.582-8-8-8c-13.248-.015-23.985-10.752-24-24v-8h20.687l13.656 13.657c3.124 3.124 8.189 3.124 11.314 0l13.656-13.657h20.687v8c-.015 13.248-10.752 23.985-24 24-4.418 0-8 3.582-8 8s3.582 8 8 8v32c0 27.643-12.53 58.765-29.8 74-3.314 2.924-3.63 7.98-.706 11.294s7.98 3.63 11.294.706c20.734-18.3 35.212-53.661 35.212-86v-35.35c14.564-6.371 23.982-20.753 24-36.65v-16c0-4.418-3.582-8-8-8h-32c-2.122 0-4.157.843-5.657 2.343l-10.343 10.344-10.343-10.344c-1.5-1.5-3.535-2.343-5.657-2.343h-32c-4.418 0-8 3.582-8 8v16c.018 15.729 9.241 29.991 23.578 36.459-2.156 11.325-12.05 19.524-23.578 19.541h-68l-21.6-28.8c-2.651-3.535-7.665-4.251-11.2-1.6-.606.455-1.145.994-1.6 1.6l-21.6 28.8h-76c-39.746.045-71.955 32.254-72 72v32c.015 13.249 10.751 23.985 24 24h56v8c.025 22.081 17.919 39.975 40 40h16c4.418 0 8-3.582 8-8v-40h50.088l16.052 41.733c.406 1.044 1.027 1.99 1.824 2.777l-.009.01 67.481 67.48h-311.436v-368h40v8c0 4.418 3.582 8 8 8s8-3.582 8-8v-8h16v8c0 4.418 3.582 8 8 8s8-3.582 8-8v-8h16v8c0 4.418 3.582 8 8 8s8-3.582 8-8v-8h16v8c0 4.418 3.582 8 8 8s8-3.582 8-8v-8h16v8c0 4.418 3.582 8 8 8s8-3.582 8-8v-8h16v8c0 4.418 3.582 8 8 8s8-3.582 8-8v-8h16v8c0 4.418 3.582 8 8 8s8-3.582 8-8v-8h16v8c0 4.418 3.582 8 8 8s8-3.582 8-8v-8h16v8c0 4.418 3.582 8 8 8s8-3.582 8-8v-8h16v8c0 4.418 3.582 8 8 8s8-3.582 8-8v-8h16v8c0 4.418 3.582 8 8 8s8-3.582 8-8v-8h16v8c0 4.418 3.582 8 8 8s8-3.582 8-8v-8h40zm-320-112h32v32h-8c-13.249-.015-23.985-10.751-24-24zm72-128 8-10.667 8 10.667z"/><circle cx="128" cy="256" r="8"/></g></svg>