<?xml version="1.0"?>
<svg xmlns="http://www.w3.org/2000/svg" id="filled_outline" data-name="filled outline" viewBox="0 0 512 512" width="512" height="512"><path d="M176,336l-72.24529,32.83877a32,32,0,0,0-18.3862,24.26589l-13.18246,85.686A16.00051,16.00051,0,0,0,72,481.22357V496H440V481.22357a16.00051,16.00051,0,0,0-.18605-2.43291l-13.18246-85.686a32,32,0,0,0-18.3862-24.26589L336,336Z" style="fill:#2b93cb"/><rect x="224" y="264" width="64" height="80" style="fill:#d6ac89"/><path d="M256,336l-32-24H203.31371a8,8,0,0,0-5.65686,2.34315L176,336l42.34315,42.34315a8,8,0,0,0,11.3137,0L256,352Z" style="fill:#216ead"/><path d="M256,336l32-24h20.68629a8,8,0,0,1,5.65686,2.34315L336,336l-42.34315,42.34315a8,8,0,0,1-11.3137,0L256,352Z" style="fill:#216ead"/><rect x="144" y="104" width="224" height="32" rx="8" ry="8" style="fill:#eeba2b"/><path d="M208,40a48,48,0,0,0-48,48v16H352V88a48,48,0,0,0-48-48Z" style="fill:#c77708"/><path d="M160,88v16h32V42.79A47.97556,47.97556,0,0,0,160,88Z" style="fill:#eeba2b"/><path d="M352,88v16H320V42.79A47.97556,47.97556,0,0,1,352,88Z" style="fill:#eeba2b"/><polygon points="224 104 224 40 240 24 272 24 288 40 288 104 224 104" style="fill:#eeba2b"/><polygon points="176 336 128 357.818 128 392 176 392 176 336" style="fill:#216ead"/><path d="M144,432l-13.65685-13.65685A8,8,0,0,1,128,412.68629V392h48v20.68629a8,8,0,0,1-2.34315,5.65686L160,432Z" style="fill:#195185"/><path d="M128,496V481.88854a8,8,0,0,1,.84458-3.5777L144,448l24-8,21.9846,14.6564A8,8,0,0,0,194.42221,456H317.57779a8,8,0,0,0,4.43761-1.3436L344,440l24,8,15.15542,30.31084A8,8,0,0,1,384,481.88854V496Z" style="fill:#216ead"/><circle cx="152" cy="440" r="16" style="fill:#5ab9e6"/><polygon points="336 336 384 357.818 384 392 336 392 336 336" style="fill:#216ead"/><path d="M368,432l13.65685-13.65685A8,8,0,0,0,384,412.68629V392H336v20.68629a8,8,0,0,0,2.34315,5.65686L352,432Z" style="fill:#195185"/><circle cx="360" cy="440" r="16" style="fill:#5ab9e6"/><path d="M336,136v64.00008A79.99991,79.99991,0,0,1,256.00008,280h-.00016A79.99991,79.99991,0,0,1,176,200.00008V136" style="fill:#f5c99d"/><rect x="208" y="168" width="24" height="16"/><path d="M447.71875,477.57031l-13.17969-85.6875a39.87877,39.87877,0,0,0-22.98437-30.32812L340.6333,329.3208,320,308.6875A15.89068,15.89068,0,0,0,308.68749,304H296V278.28564A88.026,88.026,0,0,0,344,200V144h16a16.01833,16.01833,0,0,0,16-16V112a16.01833,16.01833,0,0,0-16-16V88a56.06542,56.06542,0,0,0-56-56H291.31249l-16-16h-38.625l-16,16H208a56.06542,56.06542,0,0,0-56,56v8a16.01833,16.01833,0,0,0-16,16v16a16.01833,16.01833,0,0,0,16,16h16v56a88.026,88.026,0,0,0,48,78.28564V304H203.31249A15.89067,15.89067,0,0,0,192,308.6875l-20.6333,20.6333-70.92529,32.23389a39.88258,39.88258,0,0,0-22.98047,30.32812L64.28125,477.5625A23.88506,23.88506,0,0,0,64,481.22656V496H80V481.22656a8.00391,8.00391,0,0,1,.09375-1.21875l13.17969-85.6875a23.95479,23.95479,0,0,1,13.78906-18.20312L120,370.2373v42.4502A16.09842,16.09842,0,0,0,124.6875,424l5.71729,5.71729a23.55843,23.55843,0,0,0,1.85253,23.87792L121.6875,474.73438A16.08749,16.08749,0,0,0,120,481.89062V496h16V481.89062l9.45605-18.9121A23.67187,23.67187,0,0,0,152,464a23.935,23.935,0,0,0,20.374-11.46973l13.17286,8.78223a15.953,15.953,0,0,0,8.875,2.6875H317.57812a15.953,15.953,0,0,0,8.875-2.6875l13.17334-8.78223A23.93415,23.93415,0,0,0,360,464a23.67187,23.67187,0,0,0,6.54395-1.02148L376,481.89062V496h16V481.89062a16.08736,16.08736,0,0,0-1.68751-7.15624l-10.56981-21.13917a23.55843,23.55843,0,0,0,1.85253-23.87792L387.31249,424A16.09839,16.09839,0,0,0,392,412.6875V370.23877l12.93359,5.87842a23.951,23.951,0,0,1,13.793,18.20312l13.17969,85.69531A7.82725,7.82725,0,0,1,432,481.22656V496h16V481.22656A23.70869,23.70869,0,0,0,447.71875,477.57031ZM308.68749,320l16,16L288,372.6875l-24-24V340l26.668-20ZM344,88v8H328V56.20459A39.82944,39.82944,0,0,1,344,88ZM312,48.80859V96H296V48h8A40.00134,40.00134,0,0,1,312,48.80859ZM243.31249,32h25.375L280,43.3125V96H232V43.3125ZM216,48V96H200V48.80859A40.00134,40.00134,0,0,1,208,48ZM168,88a39.82944,39.82944,0,0,1,16-31.79541V96H168Zm-16,24H360l.01172,16H152Zm32,88V144H328v16H288a24.02624,24.02624,0,0,0-24,24v24a8.00791,8.00791,0,0,1-8,8H240v16h16a24.02624,24.02624,0,0,0,24-24V184a8.00791,8.00791,0,0,1,8-8h40v24a72,72,0,0,1-144,0Zm72,88a87.58589,87.58589,0,0,0,24-3.41162V307.999L256,326l-24-18.001V284.58838A87.58589,87.58589,0,0,0,256,288Zm-52.68751,32H221.332L248,340v8.6875l-24,24L187.3125,336ZM136,362.96484l32-14.54394V384H136ZM168,400v12.6875l-5.71729,5.71729a23.18646,23.18646,0,0,0-20.56542,0L136,412.6875V400Zm-16,48a8,8,0,1,1,8-8A8.00791,8.00791,0,0,1,152,448Zm165.57812,0H194.42188l-18.88575-12.59033a23.64033,23.64033,0,0,0-1.94092-5.69238L179.3125,424A16.09842,16.09842,0,0,0,184,412.6875v-57.375L212.68749,384a16.013,16.013,0,0,0,22.625,0L256,363.3125,276.68749,384a16.013,16.013,0,0,0,22.625,0L328,355.3125v57.375A16.09846,16.09846,0,0,0,332.68749,424l5.7173,5.71729a23.64033,23.64033,0,0,0-1.94092,5.69238ZM352,440a8,8,0,1,1,8,8A8.00791,8.00791,0,0,1,352,440Zm24-27.3125-5.71729,5.71729a23.18646,23.18646,0,0,0-20.56542,0L344,412.6875V400h32ZM376,384H344V348.42139l32,14.54492Z"/></svg>
