<svg viewBox="-60 0 512 512.00002" xmlns="http://www.w3.org/2000/svg"><path d="m33.796875 489.210938v-466.417969c0-8.410157 6.816406-15.226563 15.226563-15.226563h319.964843c8.40625 0 15.226563 6.816406 15.226563 15.226563v466.417969c0 8.40625-6.816406 15.222656-15.226563 15.222656h-319.96875c-8.40625 0-15.222656-6.816406-15.222656-15.222656zm0 0" fill="#91aee2"/><path d="m335.851562 21.832031v332.734375c0 .515625-.199218 1.007813-.574218 1.371094l-120.5625 116.585938c-.351563.34375-.828125.535156-1.320313.535156h-191.5625c-7.871093 0-14.261719-6.390625-14.261719-14.273438v-436.953125c0-7.882812 6.390626-14.261719 14.261719-14.261719h299.757813c7.882812 0 14.261718 6.378907 14.261718 14.261719zm0 0" fill="#bebebe"/><path d="m335.851562 21.832031v332.734375c0 .535156-.234374 1.054688-.574218 1.371094l-120.5625 116.585938c-.34375.34375-.851563.535156-1.320313.535156h-149.105469c-7.875 0-14.265624-6.390625-14.265624-14.273438v-436.953125c0-7.882812 6.390624-14.261719 14.265624-14.261719h257.300782c7.882812 0 14.261718 6.378907 14.261718 14.261719zm0 0" fill="#ebebf0"/><path d="m335.671875 355.375c-.09375.210938-.222656.402344-.394531.5625l-120.5625 116.585938c-.160156.160156-.351563.28125-.554688.371093v-103.398437c0-7.804688 6.320313-14.121094 14.121094-14.121094zm0 0" fill="#bebebe"/><g fill="#4172cc"><path d="m304.492188 88.539062-47.152344-30.109374c-6.609375-4.222657-15.421875-2.277344-19.648438 4.332031-4.21875 6.613281-2.277344 15.425781 4.335938 19.648437l28.828125 18.410156-29.09375 19.507813c-3.15625 2.117187-5.300781 5.335937-6.035157 9.0625-.734374 3.730469.023438 7.519531 2.140626 10.675781 2.648437 3.949219 7.066406 6.304688 11.824218 6.304688h.003906c2.824219 0 5.558594-.832032 7.910157-2.410156l47.152343-31.617188c4-2.683594 6.355469-7.15625 6.304688-11.972656-.054688-4.816406-2.511719-9.238282-6.570312-11.832032zm0 0"/><path d="m101.664062 120.328125-29.097656-19.507813 28.832032-18.410156c6.609374-4.222656 8.554687-13.035156 4.332031-19.648437-4.222657-6.609375-13.035157-8.554688-19.648438-4.332031l-47.148437 30.109374c-4.058594 2.59375-6.515625 7.015626-6.570313 11.832032-.054687 4.816406 2.300781 9.292968 6.300781 11.972656l47.152344 31.617188c2.351563 1.578124 5.089844 2.410156 7.914063 2.410156 4.757812 0 9.175781-2.355469 11.824219-6.304688 2.117187-3.15625 2.878906-6.945312 2.140624-10.675781-.734374-3.726563-2.875-6.945313-6.03125-9.0625zm0 0"/><path d="m203.289062 59.023438c-3.042968-2.273438-6.792968-3.226563-10.550781-2.683594-3.761719.542968-7.085937 2.519531-9.359375 5.566406l-46.125 61.722656c-2.273437 3.042969-3.226562 6.792969-2.683594 10.554688.542969 3.761718 2.519532 7.082031 5.5625 9.359375 2.480469 1.851562 5.421876 2.828125 8.507813 2.828125 4.46875 0 8.734375-2.132813 11.40625-5.710938l46.121094-61.722656c2.277343-3.046875 3.230469-6.792969 2.6875-10.554688-.542969-3.761718-2.519531-7.085937-5.566407-9.359374zm0 0"/><path d="m7.570312 188.179688h328.28125v141.503906h-328.28125zm0 0"/></g><path d="m7.570312 188.179688h42.453126v141.503906h-42.453126zm0 0" fill="#2e5aac"/><path d="m384.210938 431.613281c4.179687 0 7.570312-3.390625 7.570312-7.570312v-401.25c0-12.566407-10.222656-22.792969-22.789062-22.792969h-47.402344c-93.484375 0-206.402344 0-299.757813 0-12.039062 0-21.832031 9.792969-21.832031 21.832031v225.730469c0 4.1875 3.390625 7.570312 7.570312 7.570312 4.179688 0 7.570313-3.382812 7.570313-7.570312v-51.808594h194.304687c4.183594 0 7.574219-3.390625 7.574219-7.570312 0-4.179688-3.390625-7.570313-7.574219-7.570313h-194.304687v-158.78125c0-3.695312 2.996094-6.691406 6.691406-6.691406h299.757813c3.695312 0 6.691406 2.996094 6.691406 6.691406v158.78125h-88.550781c-4.183594 0-7.570313 3.390625-7.570313 7.570313 0 4.179687 3.386719 7.570312 7.570313 7.570312h88.550781v126.359375h-313.140625v-44.269531c0-4.179688-3.390625-7.570312-7.570313-7.570312-4.179687 0-7.570312 3.390624-7.570312 7.570312v180.941406c0 12.042969 9.792969 21.84375 21.832031 21.84375h4.390625v8.578125c0 12.566407 10.226563 22.792969 22.804688 22.792969h319.964844c12.566406 0 22.789062-10.226562 22.789062-22.792969v-34.882812c0-4.179688-3.390625-7.570313-7.570312-7.570313-4.179688 0-7.570313 3.390625-7.570313 7.570313v34.882812c0 4.21875-3.429687 7.652344-7.648437 7.652344h-319.964844c-4.230469 0-7.664063-3.433594-7.664063-7.652344v-8.578125h172.03125c4.296875 0 6.371094-2.398437 9.253907-5.25-.292969.285156 103.59375-100.175781 117.886718-114 1.835938-1.777344 2.886719-4.257812 2.886719-6.8125v-24.820312c0-.019532.003906-.039063.003906-.0625 0-.019532-.003906-.039063-.003906-.0625 0-6.792969 0-293.710938 0-307.789063 0-2.332031-.363281-4.582031-1.050781-6.691406h26.621094c4.21875 0 7.648437 3.433594 7.648437 7.652344v401.25c0 4.179687 3.390625 7.570312 7.570313 7.570312zm-162.480469 23.589844v-85.707031c0-3.613282 2.9375-6.550782 6.550781-6.550782h88.855469c-58.640625 56.714844-61.792969 59.757813-95.40625 92.257813zm106.550781-107.398437h-100c-11.960938 0-21.691406 9.730468-21.691406 21.691406v95.992187c-9.390625 0-176.195313 0-184.757813 0-3.695312 0-6.691406-3.007812-6.691406-6.703125v-121.53125h313.140625zm0 0"/><path d="m249.695312 153.941406c4.328126 0 8.523438-1.277344 12.128907-3.691406l47.148437-31.617188c13.054688-8.753906 12.824219-28.023437-.40625-36.472656l-47.148437-30.109375c-10.128907-6.46875-23.632813-3.492187-30.105469 6.640625-6.46875 10.128906-3.488281 23.632813 6.640625 30.101563l19.082031 12.183593-19.488281 13.066407c-17.9375 12.023437-9.195313 39.902343 12.148437 39.898437zm-3.71875-27.324218 29.097657-19.511719c4.527343-3.035157 4.457031-9.730469-.140625-12.667969l-28.832032-18.410156c-3.09375-1.976563-4-6.097656-2.027343-9.191406 1.972656-3.085938 6.09375-4.003907 9.191406-2.027344l47.152344 30.109375c4.042969 2.585937 4.105469 8.46875.125 11.140625-49.125 32.476562-47.269531 32.742187-50.851563 32.742187-2.226562 0-4.296875-1.101562-5.535156-2.949219-2.046875-3.050781-1.253906-7.175781 1.820312-9.234374zm0 0"/><path d="m112.109375 58.6875c-6.464844-10.128906-19.96875-13.105469-30.101563-6.640625l-47.148437 30.113281c-13.246094 8.457032-13.445313 27.730469-.40625 36.472656l47.148437 31.617188c3.605469 2.414062 7.800782 3.691406 12.132813 3.691406 21.34375 0 30.078125-27.875 12.144531-39.898437l-19.488281-13.066407 19.082031-12.1875c10.128906-6.46875 13.105469-19.972656 6.636719-30.101562zm-14.785156 17.339844-28.832031 18.410156c-4.59375 2.9375-4.671876 9.632812-.140626 12.671875 28.699219 19.980469 30.988282 19.023437 31.917969 23.75 1.15625 5.847656-5.367187 10.078125-10.234375 6.8125l-47.152344-31.613281c-3.996093-2.679688-3.90625-8.5625.125-11.136719l47.148438-30.113281c3.101562-1.976563 7.222656-1.058594 9.195312 2.027344 1.972657 3.09375 1.066407 7.21875-2.027343 9.191406zm0 0"/><path d="m191.652344 48.847656c-5.761719.832032-10.851563 3.859375-14.335938 8.523438l-46.125 61.726562c-10.664062 14.269532-.554687 34.84375 17.453125 34.84375 6.84375 0 13.371094-3.273437 17.464844-8.75l46.125-61.722656c11.527344-15.425781-1.316406-37.402344-20.582031-34.621094zm9.710937 20.617188c.742188 5.140625-.582031 2.929687-47.382812 66.664062-3.535157 4.730469-11.066407 2.839844-11.917969-3.03125-.257812-1.785156.175781-3.492187 1.257812-4.9375 50.039063-65.808594 45.878907-64.398437 51.496094-64.398437 3.03125-.003907 6.039063 2.21875 6.546875 5.703125zm0 0"/><path d="m50.023438 218.648438c-4.320313 0-8.644532 1.550781-8.644532 5.207031v70.5c0 3.550781 4.324219 5.320312 8.644532 5.320312 4.324218 0 8.648437-1.773437 8.648437-5.320312v-30.039063h22.058594v30.039063c0 3.550781 4.320312 5.320312 8.644531 5.320312s8.644531-1.773437 8.644531-5.320312v-70.5c0-3.65625-4.320312-5.207031-8.644531-5.207031s-8.644531 1.550781-8.644531 5.207031v27.160156h-22.058594v-27.160156c0-3.65625-4.324219-5.207031-8.648437-5.207031zm0 0"/><path d="m136.371094 299.675781c4.320312 0 8.644531-1.773437 8.644531-5.320312v-60.191407h15.296875c3.324219 0 5.210938-3.65625 5.210938-7.867187 0-3.660156-1.554688-7.648437-5.210938-7.648437h-47.886719c-3.65625 0-5.210937 3.988281-5.210937 7.648437 0 4.210937 1.886718 7.867187 5.210937 7.867187h15.296875v60.191407c0 3.550781 4.324219 5.320312 8.648438 5.320312zm0 0"/><path d="m233.023438 299.675781c4.324218 0 8.644531-1.773437 8.644531-5.320312v-67.0625c0-6.316407-4.210938-8.644531-8.644531-8.644531-6.207032 0-8.867188.664062-13.410157 8.644531l-11.417969 19.953125-11.417968-19.953125c-4.546875-7.980469-7.207032-8.644531-13.414063-8.644531-4.324219 0-8.644531 2.328124-8.644531 8.644531v67.0625c0 3.550781 4.320312 5.320312 8.644531 5.320312s8.644531-1.773437 8.644531-5.320312v-42.675781l10.53125 19.289062c1.332032 2.550781 3.4375 3.214844 5.433594 3.214844 2.105469 0 4.320313-.777344 5.761719-3.214844l10.640625-18.179688v41.566407c.003906 3.550781 4.324219 5.320312 8.648438 5.320312zm0 0"/><path d="m264.609375 218.648438c-4.324219 0-8.644531 1.550781-8.644531 5.207031v70.5c0 3.550781 3.769531 5.320312 7.535156 5.320312h35.03125c3.324219 0 4.988281-3.769531 4.988281-7.535156 0-3.769531-1.664062-7.539063-4.988281-7.539063h-25.277344v-60.746093c0-3.65625-4.320312-5.207031-8.644531-5.207031zm0 0"/></svg>